<?xml version="1.0" encoding="utf-8"?>
<!-- Generator: Adobe Illustrator 20.1.0, SVG Export Plug-In . SVG Version: 6.00 Build 0)  -->
<svg version="1.1" xmlns="http://www.w3.org/2000/svg" xmlns:xlink="http://www.w3.org/1999/xlink" x="0px" y="0px"
	 viewBox="0 0 100 100" style="enable-background:new 0 0 100 100;" xml:space="preserve">
<style type="text/css">
	.st0{fill:#2196F3;}
	.st1{fill:#EAEAEA;}
	.st2{fill:#FCFCFC;}
	.st3{fill:#E6E7E8;}
	.st4{fill:#3DC372;}
	.st5{fill:#3E57C1;}
</style>
<g id="Layer_1">
	<circle class="st0" cx="50" cy="50" r="42.8"/>
	<circle class="st1" cx="50" cy="50" r="35.6"/>
	<circle class="st2" cx="51" cy="51" r="34.4"/>
	<circle class="st0" cx="50" cy="50" r="3.1"/>
	<g>
		<rect x="49.2" y="16.4" class="st0" width="1.5" height="5.7"/>
		<rect x="77.9" y="49.2" class="st0" width="5.7" height="1.5"/>
		<rect x="49.2" y="77.9" class="st0" width="1.5" height="5.7"/>
		<rect x="16.4" y="49.2" class="st0" width="5.7" height="1.5"/>
		<g>
			
				<rect x="68.9" y="27.5" transform="matrix(0.7066 -0.7076 0.7076 0.7066 1.0784 59.0683)" class="st0" width="5.7" height="1.5"/>
			<rect x="71" y="68.9" transform="matrix(0.7071 -0.7071 0.7071 0.7071 -29.727 71.7673)" class="st0" width="1.5" height="5.7"/>
			
				<rect x="25.4" y="71" transform="matrix(0.7066 -0.7076 0.7076 0.7066 -42.4977 41.0305)" class="st0" width="5.7" height="1.5"/>
			
				<rect x="27.5" y="25.4" transform="matrix(0.7076 -0.7066 0.7066 0.7076 -11.6944 28.2051)" class="st0" width="1.5" height="5.7"/>
		</g>
	</g>
</g>
<g id="Layer_2">
	<g>
		<line class="st3" x1="50" y1="49.9" x2="50" y2="2.8"/>
		<path class="st4" d="M50,49.9c0,0-0.2-0.7-0.6-2c-0.2-0.6-0.4-1.4-0.6-2.3c-0.1-0.4-0.2-0.9-0.3-1.4c-0.1-0.3-0.1-0.5,0-0.8
			c0-0.3,0-0.5,0-0.8c0-4.4,0-10.3,0-16.2s0-11.8,0-16.2c0-0.3,0-0.5,0-0.8c0-0.3,0-0.5,0-0.8c0.1-0.5,0.2-1,0.3-1.4
			c0.2-0.9,0.4-1.7,0.6-2.3c0.3-1.3,0.6-2,0.6-2s0.2,0.7,0.6,2c0.2,0.6,0.4,1.4,0.6,2.3c0.1,0.4,0.2,0.9,0.3,1.4
			c0.1,0.3,0.1,0.5,0,0.8c0,0.3,0,0.5,0,0.8c0,4.4,0,10.3,0,16.2s0,11.8,0,16.2c0,0.3,0,0.5,0,0.8c0,0.3,0,0.5,0,0.8
			c-0.1,0.5-0.2,1-0.3,1.4c-0.2,0.9-0.4,1.7-0.6,2.3C50.2,49.2,50,49.9,50,49.9z"/>
	</g>
	<g>
		<line class="st3" x1="50" y1="49.3" x2="50" y2="2.1"/>
		<path class="st5" d="M50,49.3c0,0-0.2-0.7-0.6-2c-0.2-0.6-0.4-1.4-0.6-2.3c-0.1-0.4-0.2-0.9-0.3-1.4c-0.1-0.3-0.1-0.5,0-0.8
			c0-0.3,0-0.5,0-0.8c0-4.4,0-10.3,0-16.2s0-11.8,0-16.2c0-0.3,0-0.5,0-0.8c0-0.3,0-0.5,0-0.8c0.1-0.5,0.2-1,0.3-1.4
			c0.2-0.9,0.4-1.7,0.6-2.3c0.3-1.3,0.6-2,0.6-2s0.2,0.7,0.6,2c0.2,0.6,0.4,1.4,0.6,2.3c0.1,0.4,0.2,0.9,0.3,1.4
			c0.1,0.3,0.1,0.5,0,0.8c0,0.3,0,0.5,0,0.8c0,4.4,0,10.3,0,16.2s0,11.8,0,16.2c0,0.3,0,0.5,0,0.8c0,0.3,0,0.5,0,0.8
			c-0.1,0.5-0.2,1-0.3,1.4c-0.2,0.9-0.4,1.7-0.6,2.3C50.2,48.5,50,49.3,50,49.3z"/>
	</g>
</g>
</svg>
